<svg width="32" height="32" viewBox="0 0 32 32" fill="none" xmlns="http://www.w3.org/2000/svg">
<path d="M16 29C17.7075 29.0022 19.3986 28.6669 20.9761 28.0135C22.5537 27.36 23.9865 26.4013 25.1923 25.1923C26.4013 23.9865 27.36 22.5537 28.0135 20.9761C28.6669 19.3986 29.0022 17.7075 29 16C29.0022 14.2925 28.6669 12.6014 28.0134 11.0239C27.36 9.44636 26.4012 8.01353 25.1923 6.80771C23.9865 5.59873 22.5537 4.63996 20.9761 3.98651C19.3986 3.33305 17.7075 2.9978 16 3.00001C14.2925 2.99783 12.6014 3.3331 11.0239 3.98656C9.44636 4.64001 8.01353 5.59876 6.80771 6.80771C5.59876 8.01353 4.64001 9.44636 3.98656 11.0239C3.3331 12.6014 2.99783 14.2925 3.00001 16C2.9978 17.7075 3.33305 19.3986 3.98651 20.9761C4.63996 22.5537 5.59873 23.9865 6.80771 25.1923C8.01353 26.4012 9.44636 27.36 11.0239 28.0134C12.6014 28.6669 14.2925 29.0022 16 29V29Z" stroke="#403F4D" stroke-width="2.66667" stroke-linejoin="round"/>
<path d="M17.1785 24.1785C16.866 24.4911 16.442 24.6667 16 24.6667C15.558 24.6667 15.134 24.4911 14.8215 24.1785C14.5089 23.866 14.3333 23.442 14.3333 23C14.3333 22.558 14.5089 22.134 14.8215 21.8215C15.134 21.5089 15.558 21.3333 16 21.3333C16.442 21.3333 16.866 21.5089 17.1785 21.8215C17.4911 22.134 17.6667 22.558 17.6667 23C17.6667 23.442 17.4911 23.866 17.1785 24.1785Z" fill="#403F4D" stroke="#403F4D" stroke-width="0.666667"/>
<path d="M16 8V18" stroke="#403F4D" stroke-width="3" stroke-linecap="round" stroke-linejoin="round"/>
</svg>
