<svg width="20" height="20" viewBox="0 0 20 20" fill="none" xmlns="http://www.w3.org/2000/svg">
<path d="M10 18.125C11.0672 18.1264 12.1241 17.9168 13.1101 17.5084C14.096 17.1 14.9916 16.5008 15.7452 15.7452C16.5008 14.9916 17.1 14.096 17.5084 13.1101C17.9168 12.1241 18.1264 11.0672 18.125 10C18.1264 8.93281 17.9168 7.87588 17.5084 6.88993C17.1 5.90398 16.5008 5.00845 15.7452 4.25482C14.9916 3.4992 14.096 2.89997 13.1101 2.49157C12.1241 2.08316 11.0672 1.87362 10 1.87501C8.93281 1.87365 7.87588 2.08319 6.88993 2.4916C5.90398 2.9 5.00845 3.49922 4.25482 4.25482C3.49922 5.00845 2.9 5.90398 2.4916 6.88993C2.08319 7.87588 1.87365 8.93281 1.87501 10C1.87362 11.0672 2.08316 12.1241 2.49157 13.1101C2.89997 14.096 3.4992 14.9916 4.25482 15.7452C5.00845 16.5008 5.90398 17.1 6.88993 17.5084C7.87588 17.9168 8.93281 18.1264 10 18.125V18.125Z" stroke="#A93E1D" stroke-width="1.66667" stroke-linejoin="round"/>
<path d="M10.7366 15.1116C10.5412 15.3069 10.2763 15.4167 10 15.4167C9.72373 15.4167 9.45878 15.3069 9.26343 15.1116C9.06808 14.9162 8.95833 14.6513 8.95833 14.375C8.95833 14.0987 9.06808 13.8338 9.26343 13.6384C9.45878 13.4431 9.72373 13.3333 10 13.3333C10.2763 13.3333 10.5412 13.4431 10.7366 13.6384C10.9319 13.8338 11.0417 14.0987 11.0417 14.375C11.0417 14.6513 10.9319 14.9162 10.7366 15.1116Z" fill="#A93E1D" stroke="#A93E1D" stroke-width="0.416667"/>
<path d="M10 5V11.25" stroke="#A93E1D" stroke-width="1.875" stroke-linecap="round" stroke-linejoin="round"/>
</svg>
