<svg width="96" height="96" viewBox="0 0 96 96" fill="none" xmlns="http://www.w3.org/2000/svg">
<path d="M0 22.5C0 10.0736 10.0736 0 22.5 0H73.5C85.9264 0 96 10.0736 96 22.5V73.5C96 85.9264 85.9264 96 73.5 96H22.5C10.0736 96 0 85.9264 0 73.5V22.5Z" fill="#F9F1EF"/>
<path d="M82.6786 36.8989L76.3004 36.1384L61.3931 19.6379C61.1175 19.3324 60.7282 19.1547 60.3176 19.1428C59.9032 19.1603 59.5077 19.2918 59.2176 19.581L52.6423 26.136L46.067 19.5665C45.7726 19.273 45.3682 19.0902 44.9551 19.1284C44.5389 19.1415 44.1477 19.3268 43.874 19.6398L33.8619 31.0779L22.7843 29.7572V21.385C22.7843 20.8711 22.5194 20.3934 22.0843 20.1199L14.3003 15.2299C13.6003 14.7917 12.673 14.9976 12.2316 15.6974C11.789 16.3973 12 17.3199 12.7006 17.76L19.7838 22.2105V31.091C19.7838 31.1116 19.7945 31.1285 19.7957 31.1492V59.5527L14.5276 73.8421C14.3091 74.4337 14.4868 75.0997 14.9715 75.504C15.2484 75.735 15.5912 75.8533 15.9352 75.8533C16.1958 75.8533 16.457 75.7864 16.6911 75.6487L35.9767 64.4196L53.0682 67.9988C53.0507 68.268 53.0268 68.5353 53.0268 68.8088C53.0268 75.5316 58.5116 81 65.2545 81C71.9974 81 77.4822 75.5316 77.4822 68.8088C77.4822 64.3752 75.0895 60.4987 71.531 58.364L83.7656 39.189C84.0425 38.7553 84.0764 38.2088 83.8548 37.7443C83.635 37.2792 83.1899 36.9606 82.6789 36.8993L82.6786 36.8989ZM53.6982 29.3129C53.6988 29.3123 53.7 29.3123 53.7007 29.3117C53.7013 29.311 53.7013 29.3098 53.7019 29.3092L60.2208 22.8104L71.7762 35.5988L49.9978 33.0017L53.6982 29.3129ZM45.0779 22.813L50.5206 28.2508L46.208 32.5499L37.4672 31.5077L45.0779 22.813ZM18.7832 70.9668L22.2557 61.5462L31.6022 63.5036L18.7832 70.9668ZM74.4828 68.8078C74.4828 73.8806 70.3428 78.0082 65.2548 78.0082C60.1669 78.0082 56.0269 73.8806 56.0269 68.8078C56.0269 63.7338 60.1669 59.6062 65.2548 59.6062C70.3428 59.6062 74.4828 63.7338 74.4828 68.8078ZM68.7612 57.1319C67.6493 56.7995 66.4741 56.6154 65.2555 56.6154C59.8247 56.6154 55.2157 60.1658 53.6249 65.0589L22.7976 58.6035L22.797 32.7719L46.0026 35.5387C46.3046 35.6876 46.6348 35.7189 46.9594 35.6526L75.1781 39.0171C75.3087 39.0528 75.4443 39.0741 75.5843 39.0741C75.5956 39.0741 75.6056 39.0697 75.6169 39.0691L79.9572 39.5867L68.7612 57.1319Z" fill="#403F4D"/>
<path fill-rule="evenodd" clip-rule="evenodd" d="M65 71C66.1046 71 67 70.1046 67 69C67 67.8954 66.1046 67 65 67C63.8954 67 63 67.8954 63 69C63 70.1046 63.8954 71 65 71ZM65 73C67.2091 73 69 71.2091 69 69C69 66.7909 67.2091 65 65 65C62.7909 65 61 66.7909 61 69C61 71.2091 62.7909 73 65 73Z" fill="#403F4D"/>
</svg>
