<svg width="96" height="96" viewBox="0 0 96 96" fill="none" xmlns="http://www.w3.org/2000/svg">
<path d="M0 30C0 13.4315 13.4315 0 30 0H66C82.5685 0 96 13.4315 96 30V66C96 82.5685 82.5685 96 66 96H30C13.4315 96 0 82.5685 0 66V30Z" fill="#F9F1EF"/>
<path d="M83.9264 41.5947C83.8962 41.5049 83.8812 41.4145 83.8366 41.3398C83.7914 41.25 83.7318 41.1747 83.6715 41.1C83.6112 41.0253 83.5516 40.95 83.4763 40.8897C83.4016 40.8294 83.3262 40.7849 83.2515 40.7397C83.1617 40.6794 83.0713 40.6348 82.9665 40.6047C82.9364 40.5896 82.9062 40.5595 82.8767 40.5595C67.0513 36.4042 67.5008 13.7684 67.5008 13.545V13.5149V13.4998C67.5008 13.41 67.4707 13.3196 67.4405 13.2298C67.4255 13.125 67.4255 13.0195 67.3803 12.9298C67.3351 12.8249 67.2754 12.7496 67.2152 12.6598C67.17 12.5851 67.1254 12.5098 67.0651 12.4495C66.9904 12.3748 66.9 12.3296 66.8102 12.2693C66.7355 12.2241 66.6753 12.1645 66.5999 12.1343C66.4951 12.0891 66.3896 12.0741 66.2697 12.0596C66.1963 12.0452 66.136 12 66.0462 12H66.0312H66.001H58.5008C58.4857 12 58.4706 12.0151 58.4556 12.0151C58.2754 12.0151 58.0958 12.0452 57.9307 12.1199C57.9157 12.1199 57.9006 12.135 57.8855 12.15C57.7656 12.2103 57.6457 12.2699 57.5258 12.3748C51.121 17.8648 44.8808 17.8648 38.4746 12.3748C38.3698 12.285 38.2499 12.2097 38.1149 12.15C38.0999 12.15 38.0848 12.135 38.0697 12.1199C37.9046 12.0452 37.7244 12.0151 37.5449 12.0151C37.5298 12.0151 37.5154 12 37.5003 12H30.0001H29.985H29.9549C29.8651 12 29.7747 12.0452 29.6849 12.0603C29.5801 12.0753 29.4746 12.0904 29.3848 12.135C29.295 12.1802 29.2348 12.2398 29.145 12.3001C29.0703 12.3603 28.9799 12.4049 28.9052 12.4652C28.8449 12.5399 28.8003 12.6152 28.7401 12.705C28.6798 12.7797 28.6202 12.855 28.59 12.9448C28.5448 13.0346 28.5448 13.1551 28.5298 13.26C28.5298 13.3353 28.5003 13.41 28.5003 13.4998V13.5148V13.545C28.5003 13.7697 28.9805 36.405 13.125 40.545C13.0948 40.5601 13.0647 40.5751 13.0352 40.5902C12.9304 40.6203 12.84 40.6649 12.7502 40.7252C12.6755 40.7704 12.5851 40.8149 12.5254 40.8752C12.4501 40.9499 12.3898 41.0252 12.3302 41.0999C12.2699 41.1747 12.2103 41.25 12.1651 41.3398C12.1199 41.4145 12.1048 41.5049 12.0753 41.5946C12.0452 41.6995 12.0151 41.7899 12.0151 41.8947C12.0151 41.9399 12 41.9701 12 42.0002V82.5002C12 83.3251 12.6749 84 13.4998 84H82.4996C83.3245 84 83.9994 83.3251 83.9994 82.5002L84 42.0002C84 41.9701 83.9849 41.9255 83.9849 41.8954C83.9699 41.7899 83.9397 41.7001 83.9253 41.5953L83.9264 41.5947ZM42.0006 80.9986H15.0005V43.1086C29.6852 38.4134 31.3356 20.4431 31.4851 14.9981H36.2851L38.385 24.958C40.7852 36.3731 42.0005 48.072 42.0005 59.7286L42.0006 80.9986ZM51.0007 80.9986H45.0009L45.0002 59.7297C45.0002 47.8645 43.7553 35.9697 41.3101 24.3452L39.7651 17.0252C45.24 20.37 50.7451 20.37 56.2207 17.0252L54.6757 24.3452C52.2461 35.9549 51.0012 47.8642 51.0012 59.7297L51.0007 80.9986ZM80.9998 80.9986H53.9996V59.7297C53.9996 48.0747 55.2144 36.3747 57.6144 24.9592L59.715 14.9992H64.5151C64.6651 20.444 66.3149 38.4137 80.9996 43.1098L80.9998 80.9986Z" fill="#403F4D"/>
<path d="M58.4995 52.4988V59.999C58.4995 64.9643 62.5343 68.999 67.4996 68.999C72.4648 68.999 76.4996 64.9643 76.4996 59.999V52.4988C76.4996 51.6739 75.8247 50.999 74.9998 50.999H59.9999C59.175 50.999 58.4995 51.6739 58.4995 52.4988ZM61.5004 52.9996H73.5V59.9984C73.5 63.3131 70.8149 65.9982 67.5002 65.9982C64.1855 65.9982 61.5004 63.3131 61.5004 59.9984V52.9996Z" fill="#403F4D"/>
<path d="M35.9996 51H20.9998C20.1749 51 19.5 51.6749 19.5 52.4998V60C19.5 64.9653 23.5348 69 28.5 69C33.4653 69 37.5001 64.9653 37.5001 60V52.4998C37.5001 51.6749 36.8246 51 35.9996 51ZM34.4999 60C34.4999 63.3147 31.8148 65.9998 28.5 65.9998C25.1853 65.9998 22.5002 63.3147 22.5002 60V53.0003H34.4999V60Z" fill="#403F4D"/>
</svg>
