<svg width="96" height="96" viewBox="0 0 96 96" fill="none" xmlns="http://www.w3.org/2000/svg">
<path d="M0 30C0 13.4315 13.4315 0 30 0H66C82.5685 0 96 13.4315 96 30V66C96 82.5685 82.5685 96 66 96H30C13.4315 96 0 82.5685 0 66V30Z" fill="#F9F1EF"/>
<path d="M70.345 57.0006H65.1315L53.3798 48.4807C54.157 47.4907 54.6205 46.3054 54.6205 45.0002C54.6205 42.2104 52.5021 39.885 49.6549 39.2101V36.0001H52.9655C53.6278 36.0001 54.2069 35.6548 54.4716 35.1149L61.0921 21.6147C61.3401 21.105 61.2576 20.5048 60.8766 20.0697L54.2561 12.5694C53.9423 12.2103 53.4622 12 52.9656 12H43.0344C42.5377 12 42.0743 12.1952 41.7598 12.5399L35.1393 19.8298C34.7423 20.2649 34.6592 20.8651 34.9072 21.3899L41.5277 35.1005C41.7764 35.6404 42.3722 36.0001 43.0344 36.0001H46.345V40.5002C46.345 41.3251 47.0897 42 48 42C49.8206 42 51.3106 43.3497 51.3106 45.0002C51.3106 45.5853 51.1118 46.1403 50.7973 46.6055L49.0426 45.3305C48.4302 44.8954 47.5858 44.8954 46.9734 45.3305L45.2186 46.6055C44.8882 46.1403 44.6894 45.5853 44.6894 45.0002C44.6894 44.1753 43.9447 43.5004 43.0344 43.5004C42.1242 43.5004 41.3795 44.1753 41.3795 45.0002C41.3795 46.3054 41.8429 47.4901 42.6209 48.4801L30.8684 57.0006H25.655C24.7447 57.0006 24 57.6755 24 58.5004V82.5002C24 83.3251 24.7447 84 25.655 84H70.3451C71.2553 84 72 83.3251 72 82.5002V58.5004C72 57.6755 71.2553 57.0006 70.3451 57.0006H70.345ZM44.1108 33.0008L38.3341 21.0307L43.8131 15.0006H52.1717L57.6672 21.2258L51.8905 33.0008H44.1108ZM45.2366 50.4305C46.0803 50.7903 47.0072 51.0006 48.0006 51.0006C48.994 51.0006 49.9209 50.7903 50.7646 50.4305L59.8353 57.0005H36.1673L45.2366 50.4305ZM68.69 81.0004H27.3109L27.3102 60.0012H68.6893L68.69 81.0004Z" fill="#403F4D"/>
</svg>
