<svg width="96" height="96" viewBox="0 0 96 96" fill="none" xmlns="http://www.w3.org/2000/svg">
<path d="M0 22.5C0 10.0736 10.0736 0 22.5 0H73.5C85.9264 0 96 10.0736 96 22.5V73.5C96 85.9264 85.9264 96 73.5 96H22.5C10.0736 96 0 85.9264 0 73.5V22.5Z" fill="#F9F1EF"/>
<path d="M83.8859 28.1287C83.8488 28.0375 83.7848 27.9659 83.7321 27.8847C83.6799 27.8042 83.6404 27.7175 83.5726 27.6476C83.474 27.5464 83.3516 27.4753 83.228 27.4049C83.1828 27.3791 83.152 27.3383 83.1037 27.3175L83.0886 27.3106C83.0854 27.3093 83.0829 27.3081 83.0798 27.3068L48.6037 12.1278C48.2201 11.9574 47.7806 11.9574 47.3965 12.1278L12.9203 27.3062C12.9172 27.3074 12.9147 27.3087 12.9115 27.3099L12.8965 27.3169C12.8481 27.3382 12.8167 27.3791 12.7722 27.4043C12.6485 27.4747 12.5261 27.5458 12.4275 27.647C12.3597 27.7168 12.3202 27.8036 12.2681 27.8841C12.2147 27.9652 12.1507 28.0369 12.1143 28.1281C12.064 28.252 12.0515 28.3859 12.0352 28.5192C12.0276 28.579 12 28.6312 12 28.6921V28.7123V28.7154V35.2132C12 36.0439 12.6717 36.7155 13.4998 36.7155H15.3894V82.4977C15.3894 83.3284 16.0612 84 16.8892 84L79.1253 83.9994C79.9539 83.9994 80.625 83.3271 80.625 82.4971V36.7149H82.5002C83.3289 36.7149 84 36.0426 84 35.2126V28.7148V28.7116V28.6915C84 28.6305 83.9724 28.5783 83.9655 28.5192C83.9492 28.3859 83.9366 28.2526 83.8864 28.1287L83.8859 28.1287ZM77.6243 80.9958H18.3904V36.7156H77.6243V80.9958ZM80.9993 33.71H15.001V29.6722L48.0001 15.1447L80.9993 29.6722V33.71Z" fill="#403F4D"/>
<path fill-rule="evenodd" clip-rule="evenodd" d="M48 27C49.1046 27 50 26.1046 50 25C50 23.8954 49.1046 23 48 23C46.8954 23 46 23.8954 46 25C46 26.1046 46.8954 27 48 27ZM48 29C50.2091 29 52 27.2091 52 25C52 22.7909 50.2091 21 48 21C45.7909 21 44 22.7909 44 25C44 27.2091 45.7909 29 48 29Z" fill="#403F4D"/>
<path d="M24.1408 77.99H45.1605C45.9891 77.99 46.6602 77.3178 46.6602 76.4877L46.6609 52.8359C46.6609 52.0052 45.9891 51.3336 45.1611 51.3336L37.6471 51.333H24.1416C23.313 51.333 22.6418 52.0052 22.6418 52.8353V76.4871C22.6412 77.3178 23.3128 77.99 24.1408 77.99ZM32 53.9998H37V60.9998H32V53.9998ZM25.6414 53.9998H30.155V61.914C30.155 62.7447 30.672 62.9998 31.5 62.9998H37.6471C38.4758 62.9998 39.1461 62.744 39.1461 61.914V53.9998H43.6605V74.9844H25.6414V53.9998Z" fill="#403F4D"/>
<path d="M50.84 77.99H71.8596C72.6883 77.99 73.3594 77.3178 73.3594 76.4877L73.36 52.8359C73.36 52.0052 72.6883 51.3336 71.8602 51.3336H64.3463L58.3541 51.333H50.8401C50.0114 51.333 49.3403 52.0052 49.3403 52.8353V76.4871C49.3403 77.3178 50.0119 77.99 50.84 77.99ZM59 53.9998H64V60.9998H59V53.9998ZM52.3405 53.9998H56.8542V61.914C56.8542 62.7447 57.672 62.9998 58.5 62.9998H64.5C65.3287 62.9998 65.8452 62.744 65.8452 61.914V53.9998H70.3596V74.9844H52.3405V53.9998Z" fill="#403F4D"/>
</svg>
