<svg width="32" height="32" viewBox="0 0 32 32" fill="none" xmlns="http://www.w3.org/2000/svg">
<path d="M0 10C0 4.47715 4.47715 0 10 0H22C27.5228 0 32 4.47715 32 10V22C32 27.5228 27.5228 32 22 32H10C4.47715 32 0 27.5228 0 22V10Z" fill="#F9F1EF"/>
<path d="M19.6923 15.0769H17.0385C16.7596 14.7692 16.4135 14.6154 16 14.6154H15.9279L10.851 9.53846C10.6683 9.35577 10.4495 9.26442 10.1947 9.26442C9.9399 9.26442 9.72115 9.35577 9.53846 9.53846C9.35577 9.72115 9.26442 9.9399 9.26442 10.1947C9.26442 10.4495 9.35577 10.6683 9.53846 10.851L14.6154 15.9279V16C14.6154 16.3846 14.75 16.7115 15.0192 16.9808C15.2885 17.25 15.6154 17.3846 16 17.3846C16.4135 17.3846 16.7596 17.2308 17.0385 16.9231H19.6923C19.9423 16.9231 20.1587 16.8317 20.3413 16.649C20.524 16.4663 20.6154 16.25 20.6154 16C20.6154 15.75 20.524 15.5337 20.3413 15.351C20.1587 15.1683 19.9423 15.0769 19.6923 15.0769ZM16 7.69231C16.25 7.69231 16.4663 7.78365 16.649 7.96635C16.8317 8.14904 16.9231 8.36539 16.9231 8.61539C16.9231 8.86539 16.8317 9.08173 16.649 9.26442C16.4663 9.44712 16.25 9.53846 16 9.53846C15.75 9.53846 15.5337 9.44712 15.351 9.26442C15.1683 9.08173 15.0769 8.86539 15.0769 8.61539C15.0769 8.36539 15.1683 8.14904 15.351 7.96635C15.5337 7.78365 15.75 7.69231 16 7.69231ZM16 22.4615C16.25 22.4615 16.4663 22.5529 16.649 22.7356C16.8317 22.9183 16.9231 23.1346 16.9231 23.3846C16.9231 23.6346 16.8317 23.851 16.649 24.0337C16.4663 24.2163 16.25 24.3077 16 24.3077C15.75 24.3077 15.5337 24.2163 15.351 24.0337C15.1683 23.851 15.0769 23.6346 15.0769 23.3846C15.0769 23.1346 15.1683 22.9183 15.351 22.7356C15.5337 22.5529 15.75 22.4615 16 22.4615ZM8.61539 15.0769C8.86539 15.0769 9.08173 15.1683 9.26442 15.351C9.44712 15.5337 9.53846 15.75 9.53846 16C9.53846 16.25 9.44712 16.4663 9.26442 16.649C9.08173 16.8317 8.86539 16.9231 8.61539 16.9231C8.36539 16.9231 8.14904 16.8317 7.96635 16.649C7.78365 16.4663 7.69231 16.25 7.69231 16C7.69231 15.75 7.78365 15.5337 7.96635 15.351C8.14904 15.1683 8.36539 15.0769 8.61539 15.0769ZM23.3846 15.0769C23.6346 15.0769 23.851 15.1683 24.0337 15.351C24.2163 15.5337 24.3077 15.75 24.3077 16C24.3077 16.25 24.2163 16.4663 24.0337 16.649C23.851 16.8317 23.6346 16.9231 23.3846 16.9231C23.1346 16.9231 22.9183 16.8317 22.7356 16.649C22.5529 16.4663 22.4615 16.25 22.4615 16C22.4615 15.75 22.5529 15.5337 22.7356 15.351C22.9183 15.1683 23.1346 15.0769 23.3846 15.0769ZM16 4C14.375 4 12.8197 4.31731 11.3341 4.95192C9.84856 5.58654 8.57212 6.4375 7.50481 7.50481C6.4375 8.57212 5.58654 9.84856 4.95192 11.3341C4.31731 12.8197 4 14.375 4 16C4 17.625 4.31731 19.1803 4.95192 20.6659C5.58654 22.1514 6.4375 23.4279 7.50481 24.4952C8.57212 25.5625 9.84856 26.4135 11.3341 27.0481C12.8197 27.6827 14.375 28 16 28C17.625 28 19.1803 27.6827 20.6659 27.0481C22.1514 26.4135 23.4279 25.5625 24.4952 24.4952C25.5625 23.4279 26.4135 22.1514 27.0481 20.6659C27.6827 19.1803 28 17.625 28 16C28 14.375 27.6827 12.8197 27.0481 11.3341C26.4135 9.84856 25.5625 8.57212 24.4952 7.50481C23.4279 6.4375 22.1514 5.58654 20.6659 4.95192C19.1803 4.31731 17.625 4 16 4ZM16 5.84615C17.375 5.84615 18.6899 6.11298 19.9447 6.64663C21.1995 7.18029 22.2813 7.90144 23.1899 8.8101C24.0986 9.71875 24.8197 10.8005 25.3534 12.0553C25.887 13.3101 26.1538 14.625 26.1538 16C26.1538 17.375 25.887 18.6899 25.3534 19.9447C24.8197 21.1995 24.0986 22.2813 23.1899 23.1899C22.2813 24.0986 21.1995 24.8197 19.9447 25.3534C18.6899 25.887 17.375 26.1538 16 26.1538C14.625 26.1538 13.3101 25.887 12.0553 25.3534C10.8005 24.8197 9.71875 24.0986 8.8101 23.1899C7.90144 22.2813 7.18029 21.1995 6.64663 19.9447C6.11298 18.6899 5.84615 17.375 5.84615 16C5.84615 14.625 6.11298 13.3101 6.64663 12.0553C7.18029 10.8005 7.90144 9.71875 8.8101 8.8101C9.71875 7.90144 10.8005 7.18029 12.0553 6.64663C13.3101 6.11298 14.625 5.84615 16 5.84615Z" fill="#403F4D"/>
</svg>
