<svg width="32" height="32" viewBox="0 0 32 32" fill="none" xmlns="http://www.w3.org/2000/svg">
<path d="M6.10022 6.10022C6.47528 5.72528 6.98389 5.51465 7.51422 5.51465C8.04455 5.51465 8.55317 5.72528 8.92822 6.10022L16.0002 13.1722L23.0722 6.10022C23.4494 5.73591 23.9546 5.53432 24.479 5.53887C25.0034 5.54343 25.505 5.75377 25.8759 6.12458C26.2467 6.4954 26.457 6.99703 26.4616 7.52142C26.4661 8.04581 26.2645 8.55102 25.9002 8.92822L18.8282 16.0002L25.9002 23.0722C26.2645 23.4494 26.4661 23.9546 26.4616 24.479C26.457 25.0034 26.2467 25.505 25.8759 25.8759C25.505 26.2467 25.0034 26.457 24.479 26.4616C23.9546 26.4661 23.4494 26.2645 23.0722 25.9002L16.0002 18.8282L8.92822 25.9002C8.55102 26.2645 8.04581 26.4661 7.52142 26.4616C6.99703 26.457 6.4954 26.2467 6.12458 25.8759C5.75377 25.505 5.54343 25.0034 5.53887 24.479C5.53432 23.9546 5.73591 23.4494 6.10022 23.0722L13.1722 16.0002L6.10022 8.92822C5.72528 8.55317 5.51465 8.04455 5.51465 7.51422C5.51465 6.98389 5.72528 6.47528 6.10022 6.10022Z" fill="#403F4D"/>
</svg>
