<svg width="32" height="32" viewBox="0 0 32 32" fill="none" xmlns="http://www.w3.org/2000/svg">
<path d="M11.2986 14.2804H8.80987C7.41682 14.2804 6.72811 12.5962 7.71421 11.6138L14.8986 4.45613C15.509 3.84796 16.4951 3.84796 17.1056 4.45613L24.29 11.6138C25.2761 12.5962 24.5717 14.2804 23.1786 14.2804H20.6899V22.0774C20.6899 22.9351 19.9856 23.6368 19.1247 23.6368H12.8638C12.0029 23.6368 11.2986 22.9351 11.2986 22.0774V14.2804Z" fill="white"/>
<path d="M7.25 25.8181C6.55964 25.8181 6 26.3066 6 26.9091C6 27.5116 6.55964 28 7.25 28H24.75C25.4404 28 26 27.5116 26 26.9091C26 26.3066 25.4404 25.8181 24.75 25.8181H7.25Z" fill="white"/>
</svg>
