<svg width="32" height="32" viewBox="0 0 32 32" fill="none" xmlns="http://www.w3.org/2000/svg">
<path d="M31.7413 15.5012C28.3881 8.95895 22.5075 5 16 5C9.49254 5 3.60199 8.95895 0.278607 15.5012L0 15.9947L0.258706 16.4988C3.61194 23.041 9.49254 27 16 27C22.5075 27 28.398 23.0936 31.7413 16.4988L32 15.9947L31.7413 15.5012ZM16 24.8473C10.398 24.8473 5.25373 21.5499 2.26866 15.9947C5.25373 10.4396 10.398 7.14224 16 7.14224C21.602 7.14224 26.6866 10.4501 29.7214 15.9947C26.6866 21.5499 21.592 24.8473 16 24.8473Z" fill="#403F4D"/>
<path d="M15.9489 9.00019C14.5654 9.01028 13.2158 9.43017 12.0708 10.2068C10.9257 10.9834 10.0365 12.082 9.51541 13.3637C8.99433 14.6454 8.86477 16.0528 9.14309 17.4081C9.42141 18.7634 10.0951 20.0058 11.0792 20.9785C12.0632 21.9511 13.3134 22.6103 14.6718 22.8728C16.0303 23.1354 17.4361 22.9894 18.7116 22.4534C19.9872 21.9175 21.0753 21.0155 21.8386 19.8615C22.6018 18.7075 23.0059 17.3531 22.9999 15.9696C22.9959 15.0486 22.8102 14.1374 22.4535 13.2884C22.0967 12.4393 21.5759 11.669 20.9208 11.0215C20.2658 10.3741 19.4895 9.86227 18.6363 9.51541C17.7831 9.16855 16.8699 8.99346 15.9489 9.00019ZM15.9489 20.9594C14.9716 20.9493 14.0191 20.6507 13.211 20.101C12.4028 19.5514 11.7751 18.7752 11.4067 17.8699C11.0383 16.9647 10.9455 15.9708 11.1402 15.013C11.3348 14.0552 11.808 13.1763 12.5005 12.4866C13.193 11.797 14.0739 11.3273 15.0324 11.1366C15.991 10.9459 16.9845 11.0427 17.8882 11.4148C18.792 11.7869 19.5656 12.4178 20.1119 13.2281C20.6583 14.0385 20.953 14.9922 20.9591 15.9696C20.9618 16.6273 20.834 17.2791 20.5829 17.887C20.3318 18.495 19.9625 19.047 19.4965 19.5112C19.0304 19.9754 18.4769 20.3424 17.8679 20.591C17.2589 20.8396 16.6067 20.9648 15.9489 20.9594Z" fill="#403F4D"/>
</svg>
