<svg width="32" height="32" viewBox="0 0 32 32" fill="none" xmlns="http://www.w3.org/2000/svg">
<path d="M26.6152 23C30.0834 19.873 32 16.3298 32 16.3298C32 16.3298 25.8832 5 15.6886 5C13.7304 5.00681 11.7944 5.41905 10 6.21126L11.57 7.7995C12.89 7.31366 14.2837 7.06343 15.6886 7.05997C20.0111 7.05997 23.5976 9.46601 26.2258 12.1213C27.4906 13.4061 28.6245 14.816 29.6104 16.3298C29.4921 16.509 29.3616 16.7068 29.2128 16.9231C28.5297 17.9119 27.5205 19.2303 26.2258 20.5383C25.8893 20.8782 25.5386 21.214 25.1716 21.5395L26.6152 23Z" fill="#403F4D"/>
<path d="M22.5867 18.3472C23.0328 17.0995 23.1154 15.7508 22.8249 14.4581C22.5345 13.1653 21.8829 11.9815 20.9459 11.0446C20.009 10.1077 18.8253 9.45608 17.5325 9.16561C16.2397 8.87514 14.891 8.95775 13.6433 9.40383L15.2885 11.049C16.0567 10.939 16.84 11.0095 17.5762 11.2548C18.3125 11.5001 18.9815 11.9135 19.5303 12.4623C20.079 13.011 20.4924 13.68 20.7377 14.4163C20.9831 15.1526 21.0535 15.9358 20.9436 16.7041L22.5867 18.3472ZM16.7038 20.9439L18.3469 22.587C17.0992 23.0331 15.7505 23.1157 14.4578 22.8252C13.165 22.5348 11.9812 21.8832 11.0443 20.9462C10.1074 20.0093 9.45577 18.8256 9.1653 17.5328C8.87483 16.24 8.95744 14.8913 9.40352 13.6436L11.0487 15.2888C10.9387 16.057 11.0092 16.8403 11.2545 17.5765C11.4998 18.3128 11.9132 18.9818 12.462 19.5306C13.0107 20.0793 13.6797 20.4927 14.416 20.738C15.1523 20.9834 15.9355 21.0538 16.7038 20.9439Z" fill="#403F4D"/>
<path d="M6.8304 10.4585C6.46339 10.7881 6.11066 11.1218 5.77424 11.4617C4.50938 12.7464 3.37548 14.1564 2.38962 15.6702L2.78721 16.2634C3.47025 17.2522 4.47952 18.5706 5.77424 19.8787C8.40241 22.534 11.9909 24.94 16.3114 24.94C17.7713 24.94 19.1455 24.6661 20.43 24.1984L22 25.7887C20.2056 26.5809 18.2696 26.9931 16.3114 27C6.11677 27 0 15.6702 0 15.6702C0 15.6702 1.91455 12.125 5.3848 9L6.82836 10.4605L6.8304 10.4585Z" fill="#403F4D"/>
<path d="M25.7743 27L5 6.22568L6.22568 5L27 25.7743L25.7743 27Z" fill="#403F4D"/>
</svg>
