<svg width="97" height="96" viewBox="0 0 97 96" fill="none" xmlns="http://www.w3.org/2000/svg">
<path d="M44.3501 2.00784C46.703 0.752941 49.5266 0.752941 51.8795 2.00784L88.8795 21.7412C91.4864 23.1315 93.1148 25.8455 93.1148 28.8V67.2C93.1148 70.1545 91.4864 72.8685 88.8795 74.2588L51.8795 93.9922C49.5266 95.2471 46.703 95.2471 44.3501 93.9922L7.3501 74.2588C4.74319 72.8685 3.11481 70.1545 3.11481 67.2V28.8C3.11481 25.8455 4.74319 23.1315 7.3501 21.7412L44.3501 2.00784Z" fill="#F9F1EF"/>
<path d="M63.3036 56.168H56.5836V65H53.1276V56.168H34.1676V53.672L51.9756 31.4H55.8156L38.6316 53.096H53.2236V45.32H56.5836V53.096H63.3036V56.168Z" fill="#403F4D"/>
</svg>
