<svg width="97" height="96" viewBox="0 0 97 96" fill="none" xmlns="http://www.w3.org/2000/svg">
<path d="M44.3501 2.00784C46.703 0.752941 49.5266 0.752941 51.8795 2.00784L88.8795 21.7412C91.4864 23.1315 93.1148 25.8455 93.1148 28.8V67.2C93.1148 70.1545 91.4864 72.8685 88.8795 74.2588L51.8795 93.9922C49.5266 95.2471 46.703 95.2471 44.3501 93.9922L7.3501 74.2588C4.74319 72.8685 3.11481 70.1545 3.11481 67.2V28.8C3.11481 25.8455 4.74319 23.1315 7.3501 21.7412L44.3501 2.00784Z" fill="#F9F1EF"/>
<path d="M59.9142 61.928V65H36.3462V62.552L50.3142 48.872C52.0742 47.144 53.2582 45.656 53.8662 44.408C54.5062 43.128 54.8262 41.848 54.8262 40.568C54.8262 38.584 54.1382 37.048 52.7622 35.96C51.4182 34.84 49.4822 34.28 46.9542 34.28C43.0182 34.28 39.9622 35.528 37.7862 38.024L35.3382 35.912C36.6502 34.376 38.3142 33.192 40.3302 32.36C42.3782 31.528 44.6822 31.112 47.2422 31.112C50.6662 31.112 53.3702 31.928 55.3542 33.56C57.3702 35.16 58.3782 37.368 58.3782 40.184C58.3782 41.912 57.9942 43.576 57.2262 45.176C56.4582 46.776 55.0022 48.616 52.8582 50.696L41.4342 61.928H59.9142Z" fill="#403F4D"/>
</svg>
