<svg width="96" height="96" viewBox="0 0 96 96" fill="none" xmlns="http://www.w3.org/2000/svg">
<path d="M44.2353 2.00784C46.5882 0.752941 49.4118 0.752941 51.7647 2.00784L88.7647 21.7412C91.3716 23.1315 93 25.8455 93 28.8V67.2C93 70.1545 91.3716 72.8685 88.7647 74.2588L51.7647 93.9922C49.4118 95.2471 46.5882 95.2471 44.2353 93.9922L7.23529 74.2588C4.62839 72.8685 3 70.1545 3 67.2V28.8C3 25.8455 4.62839 23.1315 7.23529 21.7412L44.2353 2.00784Z" fill="#F9F1EF"/>
<path d="M48.3731 45.8C51.8931 45.992 54.5651 46.952 56.3891 48.68C58.2451 50.376 59.1731 52.6 59.1731 55.352C59.1731 57.272 58.7091 58.984 57.7811 60.488C56.8531 61.96 55.4771 63.128 53.6531 63.992C51.8291 64.856 49.6051 65.288 46.9811 65.288C44.5491 65.288 42.2451 64.904 40.0691 64.136C37.9251 63.336 36.1971 62.28 34.8851 60.968L36.5651 58.232C37.6851 59.384 39.1731 60.328 41.0291 61.064C42.8851 61.768 44.8691 62.12 46.9811 62.12C49.7331 62.12 51.8611 61.528 53.3651 60.344C54.8691 59.128 55.6211 57.464 55.6211 55.352C55.6211 53.272 54.8691 51.64 53.3651 50.456C51.8611 49.272 49.5891 48.68 46.5491 48.68H44.1491V46.136L53.4611 34.472H36.2771V31.4H57.8771V33.848L48.3731 45.8Z" fill="#403F4D"/>
</svg>
