<svg width="159" height="30" viewBox="0 0 159 30" fill="none" xmlns="http://www.w3.org/2000/svg">
<path d="M12.1813 25C10.2757 25 8.47266 24.8677 6.77227 24.6032C5.8048 24.4709 4.9546 24.2593 4.22167 23.9683C3.48874 23.6508 2.77047 23.2275 2.06686 22.6984C1.39257 22.2222 0.879515 21.5873 0.527709 20.7937C0.175903 19.9735 0 19.0476 0 18.0159V12.3413C0 11.0714 0.263855 9.96032 0.791564 9.00794C1.31927 8.05556 2.00823 7.31481 2.85842 6.78571C3.56204 6.33598 4.50019 5.96561 5.67287 5.6746C6.84556 5.35714 7.95961 5.15873 9.01503 5.07937C10.2464 5.02646 11.3018 5 12.1813 5C13.5592 5 14.6879 5.03968 15.5674 5.11905C16.4469 5.17196 17.4437 5.33069 18.5578 5.59524C19.7891 5.88624 20.7859 6.28307 21.5481 6.78571C22.3397 7.28836 22.9993 8.00265 23.527 8.92857C24.0841 9.8545 24.3626 10.9921 24.3626 12.3413V18.0159C24.3626 19.0476 24.1867 19.9735 23.8349 20.7937C23.4831 21.5873 22.9847 22.2222 22.3397 22.6984C21.6361 23.2275 20.9178 23.6508 20.1849 23.9683C19.4519 24.2593 18.6017 24.4709 17.6343 24.6032C15.9632 24.8677 14.1455 25 12.1813 25ZM12.1813 21.3889C15.8753 21.3889 17.7222 20.463 17.7222 18.6111V11.5873C17.7222 9.57672 15.8753 8.57143 12.1813 8.57143C8.48732 8.57143 6.64034 9.57672 6.64034 11.5873V18.6111C6.64034 20.463 8.48732 21.3889 12.1813 21.3889Z" fill="#ED6B42"/>
<path d="M29.6527 5.39683H38.4039L43.8569 18.3333L49.3099 5.39683H58.105V24.6032H52.1683V11.5079H51.9484L46.0557 24.6032H41.3503L35.6334 11.5079H35.4135V24.6032H29.6527V5.39683Z" fill="#ED6B42"/>
<path d="M64.2665 5.39683H73.0176L78.4706 18.3333L83.9236 5.39683H92.7188V24.6032H86.782V11.5079H86.5622L80.6694 24.6032H75.964L70.2472 11.5079H70.0273V24.6032H64.2665V5.39683Z" fill="#ED6B42"/>
<path d="M105.389 17.381L96.2416 5.39683H103.102L108.511 13.3333L113.92 5.39683H121L111.809 17.2619V24.6032H105.389V17.381Z" fill="#ED6B42"/>
<path d="M142.393 18.1036C142.393 17.7154 142.168 17.3623 141.817 17.1979L130.424 11.8673C129.761 11.5571 129 12.041 129 12.7731L129 23.0976C129 23.4857 129.225 23.8388 129.576 24.0033L140.969 29.3338C141.632 29.6441 142.393 29.1601 142.393 28.4281V18.1036Z" fill="#ED6B42"/>
<path d="M145.602 18.1036C145.602 17.7154 145.826 17.3623 146.178 17.1978L157.571 11.8673C158.234 11.5571 158.994 12.041 158.994 12.7731V23.0976C158.994 23.4857 158.77 23.8388 158.418 24.0033L147.025 29.3338C146.362 29.6441 145.602 29.1601 145.602 28.4281L145.602 18.1036Z" fill="#A93E1D"/>
<path d="M144.438 0.213511C144.162 0.0787464 143.838 0.0787464 143.562 0.213511L130.844 6.41144C130.095 6.77657 130.095 7.84417 130.844 8.2093L143.562 14.4072C143.838 14.542 144.162 14.542 144.438 14.4072L157.156 8.2093C157.905 7.84417 157.905 6.77657 157.156 6.41144L144.438 0.213511Z" fill="#FAAE96"/>
</svg>
