<svg width="32" height="32" viewBox="0 0 32 32" fill="none" xmlns="http://www.w3.org/2000/svg">
<path fill-rule="evenodd" clip-rule="evenodd" d="M3 7C3 5.89543 3.89543 5 5 5H27C28.1046 5 29 5.89543 29 7C29 8.10457 28.1046 9 27 9H5C3.89543 9 3 8.10457 3 7ZM3 16C3 14.8954 3.89543 14 5 14H27C28.1046 14 29 14.8954 29 16C29 17.1046 28.1046 18 27 18H5C3.89543 18 3 17.1046 3 16ZM29 25C29 23.8954 28.1046 23 27 23H5C3.89543 23 3 23.8954 3 25C3 26.1046 3.89543 27 5 27H27C28.1046 27 29 26.1046 29 25Z" fill="#403F4D"/>
</svg>
