<svg width="96" height="96" viewBox="0 0 96 96" fill="none" xmlns="http://www.w3.org/2000/svg">
<path d="M0 30C0 13.4315 13.4315 0 30 0H66C82.5685 0 96 13.4315 96 30V66C96 82.5685 82.5685 96 66 96H30C13.4315 96 0 82.5685 0 66V30Z" fill="#F9F1EF"/>
<path d="M48 39C41.3331 39 36 33.6669 36 27C36 20.3331 41.3331 15 48 15C54.6669 15 60 20.3331 60 27C60 33.6663 54.6663 39 48 39ZM48 18.1657C43.1669 18.1657 39.3331 21.9989 39.3331 26.8326C39.3331 31.6657 43.1663 35.4994 48 35.4994C52.8331 35.4994 56.6669 31.6663 56.6669 26.8326C56.6663 21.9994 52.8331 18.1657 48 18.1657Z" fill="#403F4D"/>
<path d="M25 44C20.6077 44 17 40.3923 17 36C17 31.6077 20.6077 28 25 28C29.3923 28 33 31.6077 33 36C33 40.3923 29.3923 44 25 44ZM25 31.1376C22.3335 31.1376 20.1371 33.3335 20.1371 36.0005C20.1371 38.667 22.333 40.8635 25 40.8635C27.6665 40.8635 29.8629 38.6676 29.8629 36.0005C29.8629 33.3335 27.6665 31.1376 25 31.1376Z" fill="#403F4D"/>
<path d="M71 44C66.6077 44 63 40.3923 63 36C63 31.6077 66.6077 28 71 28C75.3923 28 79 31.6077 79 36C79 40.3923 75.5488 44 71 44ZM71 31.1376C68.3335 31.1376 66.1371 33.3335 66.1371 36.0005C66.1371 38.667 68.333 40.8635 71 40.8635C73.6665 40.8635 75.8629 38.6676 75.8629 36.0005C75.8629 33.3335 73.8235 31.1376 71 31.1376Z" fill="#403F4D"/>
<path d="M33.9412 55H42.0588C42.5785 55 43 55.4637 43 56.0355V60.9636C43 61.5354 42.5785 62 42.0588 62H33.9412C33.4215 62 33 61.5354 33 60.9636V56.0355C33 55.4637 33.4215 55 33.9412 55ZM41.3333 56.75H34.6667V60.25H41.3333V56.75Z" fill="#403F4D"/>
<path d="M52.9412 55H61.0588C61.5785 55 62 55.4637 62 56.0355V60.9636C62 61.5354 61.5785 62 61.0588 62H52.9412C52.4215 62 52 61.5354 52 60.9636V56.0355C52 55.4637 52.4215 55 52.9412 55ZM60.3333 56.75H53.6667V60.25H60.3333V56.75Z" fill="#403F4D"/>
<path fill-rule="evenodd" clip-rule="evenodd" d="M28.5473 81.9994H66.4535L66.4527 82C67.2261 82 67.9995 81.087 68 79.9911V74H82.567C83.5062 74 84.1327 73.1062 83.976 72.0322V57.5491C83.976 51.8277 79.9063 47 74.7407 47H65.0359C64.8657 47 64.6956 47 64.5255 47.0036C62.1236 43.9259 58.6794 42 54.849 42H40.1515C36.3223 42 32.8794 43.9246 30.4776 47.0002C30.4296 47 30.3816 47 30.3336 47H20.9395C16.091 47 12 51.6798 12 57.6198V72.1998C12 73.2798 12.6063 74 13.5154 74H27.0001L27 80.1727C27 81.2686 27.619 81.9994 28.5473 81.9994ZM28.3746 50.6004C27.495 52.6843 27.0005 55.0357 27.0005 57.5253L27.0002 70.4002H15.031V57.6198C15.031 53.8398 17.6067 50.5998 20.9403 50.5998L28.3746 50.6004ZM81.0012 70.4242H68V57.5253C68 55.0975 67.5298 52.8011 66.6908 50.7561H74.8964C78.1836 50.7561 81.0012 53.7955 81.0012 57.7294V70.4242ZM46 78.3466H29.94L29.9406 57.5247C29.9406 50.9494 34.4271 45.6528 39.9969 45.6528H46V78.3466ZM64.7507 78.3466H49V45.6528H54.6944C60.2641 45.6528 64.7507 50.9494 64.7507 57.5247V78.3466Z" fill="#403F4D"/>
<path d="M17.753 55H24.247C24.6628 55 25 55.3974 25 55.8876V60.1116C25 60.6018 24.6628 61 24.247 61H17.753C17.3372 61 17 60.6018 17 60.1116V55.8876C17 55.3974 17.3372 55 17.753 55ZM23.6667 56.5H18.3333V59.5H23.6667V56.5Z" fill="#403F4D"/>
<path d="M70.753 55H77.247C77.6628 55 78 55.3974 78 55.8876V60.1116C78 60.6018 77.6628 61 77.247 61H70.753C70.3372 61 70 60.6018 70 60.1116V55.8876C70 55.3974 70.3372 55 70.753 55ZM76.6667 56.5H71.3333V59.5H76.6667V56.5Z" fill="#403F4D"/>
</svg>
