<svg width="96" height="96" viewBox="0 0 96 96" fill="none" xmlns="http://www.w3.org/2000/svg">
<path d="M0 30C0 13.4315 13.4315 0 30 0H66C82.5685 0 96 13.4315 96 30V66C96 82.5685 82.5685 96 66 96H30C13.4315 96 0 82.5685 0 66V30Z" fill="#F9F1EF"/>
<path d="M46.907 39.5012C39.3597 39.5012 33.3223 33.3901 33.3223 25.7506C33.3223 18.1112 39.3597 12 46.907 12C54.4543 12 60.4918 18.1112 60.4918 25.7506C60.4918 33.3894 54.4537 39.5012 46.907 39.5012ZM46.907 15.6275C41.4356 15.6275 37.0956 20.0199 37.0956 25.5588C37.0956 31.097 41.435 35.49 46.907 35.49C52.3785 35.49 56.7185 31.0976 56.7185 25.5588C56.7178 20.0205 52.3785 15.6275 46.907 15.6275Z" fill="#403F4D"/>
<path fill-rule="evenodd" clip-rule="evenodd" d="M23.887 83.9989H70.114L70.113 83.9996C71.0562 83.9996 71.9994 83.0449 72 81.899V58.4084C72 49.4319 64.8298 42.1748 55.9622 42.1748H38.0384C29.1701 42.1748 22.0006 49.4325 22.0006 58.4084L22 82.0889C22 83.2348 22.7549 83.9989 23.887 83.9989ZM45.5 80.1796H25.5854L25.5861 58.4077C25.5861 51.5324 31.0575 45.9942 37.8499 45.9942H45.5V80.1796ZM68.0375 80.1796H48.5V45.9942H55.7737C62.566 45.9942 68.0375 51.5324 68.0375 58.4077V80.1796Z" fill="#403F4D"/>
<path fill-rule="evenodd" clip-rule="evenodd" d="M76 26C76.4243 26 76.8313 26.1686 77.1314 26.4686C77.4314 26.7687 77.6 27.1757 77.6 27.6V32.4H82.4C82.8243 32.4 83.2313 32.5686 83.5314 32.8686C83.8314 33.1687 84 33.5757 84 34C84 34.4243 83.8314 34.8313 83.5314 35.1314C83.2313 35.4314 82.8243 35.6 82.4 35.6H77.6V40.4C77.6 40.8243 77.4314 41.2313 77.1314 41.5314C76.8313 41.8314 76.4243 42 76 42C75.5757 42 75.1687 41.8314 74.8686 41.5314C74.5686 41.2313 74.4 40.8243 74.4 40.4V35.6H69.6C69.1757 35.6 68.7687 35.4314 68.4686 35.1314C68.1686 34.8313 68 34.4243 68 34C68 33.5757 68.1686 33.1687 68.4686 32.8686C68.7687 32.5686 69.1757 32.4 69.6 32.4H74.4V27.6C74.4 27.1757 74.5686 26.7687 74.8686 26.4686C75.1687 26.1686 75.5757 26 76 26Z" fill="#403F4D"/>
<path d="M31.1295 54H40.8705C41.4943 54 42 54.5299 42 55.1835V60.8155C42 61.469 41.4943 62 40.8705 62H31.1295C30.5058 62 30 61.469 30 60.8155V55.1835C30 54.5299 30.5058 54 31.1295 54ZM39.7401 56.3679H32.2594V59.6319H39.7401V56.3679Z" fill="#403F4D"/>
<path d="M53.1295 54H62.8705C63.4943 54 64 54.5299 64 55.1835V60.8155C64 61.469 63.4943 62 62.8705 62H53.1295C52.5058 62 52 61.469 52 60.8155V55.1835C52 54.5299 52.5058 54 53.1295 54ZM61.7401 56.3679H54.2594V59.6319H61.7401V56.3679Z" fill="#403F4D"/>
</svg>
