<svg width="96" height="96" viewBox="0 0 96 96" fill="none" xmlns="http://www.w3.org/2000/svg">
<path d="M0 30C0 13.4315 13.4315 0 30 0H66C82.5685 0 96 13.4315 96 30V66C96 82.5685 82.5685 96 66 96H30C13.4315 96 0 82.5685 0 66V30Z" fill="#F9F1EF"/>
<path d="M55.907 39.5012C48.3597 39.5012 42.3223 33.3901 42.3223 25.7506C42.3223 18.1112 48.3597 12 55.907 12C63.4543 12 69.4918 18.1112 69.4918 25.7506C69.4918 33.3894 63.4537 39.5012 55.907 39.5012ZM55.907 15.6275C50.4356 15.6275 46.0956 20.0199 46.0956 25.5588C46.0956 31.097 50.435 35.49 55.907 35.49C61.3785 35.49 65.7185 31.0976 65.7185 25.5588C65.7178 20.0205 61.3785 15.6275 55.907 15.6275Z" fill="#403F4D"/>
<path fill-rule="evenodd" clip-rule="evenodd" d="M32.887 83.9989H79.114L79.113 83.9996C80.0562 83.9996 80.9994 83.0449 81 81.899V58.4084C81 49.4319 73.8298 42.1748 64.9622 42.1748H47.0384C38.1701 42.1748 31.0006 49.4325 31.0006 58.4084L31 82.0889C31 83.2348 31.7549 83.9989 32.887 83.9989ZM54.5 80.1796H34.5854L34.5861 58.4077C34.5861 51.5324 40.0575 45.9942 46.8499 45.9942H54.5V80.1796ZM77.0375 80.1796H57.5V45.9942H64.7737C71.566 45.9942 77.0375 51.5324 77.0375 58.4077V80.1796Z" fill="#403F4D"/>
<path d="M30 44C25.0586 44 21 39.9414 21 35C21 30.0586 25.0586 26 30 26C34.9414 26 39 30.0586 39 35C39 39.9414 34.9414 44 30 44ZM30 29.5298C27.0002 29.5298 24.5292 32.0002 24.5292 35.0006C24.5292 38.0004 26.9996 40.4714 30 40.4714C32.9998 40.4714 35.4708 38.001 35.4708 35.0006C35.4708 32.0002 32.9998 29.5298 30 29.5298Z" fill="#403F4D"/>
<path d="M33.4202 75H16.6597C15.664 75 15 74.2531 15 73.1331V58.0131C15 51.8531 19.4807 47 24.7909 47H35.0796C35.5775 47 36.0753 47 36.5732 47.1869C37.2372 47.3738 37.735 47.7469 37.9006 48.3069C38.0667 48.8669 38.0667 49.6138 37.5689 50.1738C35.9092 52.4138 34.5 55.2138 34.5 58.0138V73.5C34.6667 74.4331 34.4159 75 33.4202 75ZM18.3197 71.2669H31.7617V58.0138C31.7617 55.4006 32.2595 52.9738 33.4214 50.7338L24.7917 50.7331C21.1406 50.7331 18.3197 54.0931 18.3197 58.0131V71.2669Z" fill="#403F4D"/>
<path d="M41.9412 55H50.0588C50.5785 55 51 55.4637 51 56.0355V60.9636C51 61.5354 50.5785 62 50.0588 62H41.9412C41.4215 62 41 61.5354 41 60.9636V56.0355C41 55.4637 41.4215 55 41.9412 55ZM49.1167 57.0719H42.8828V59.9279H49.1167V57.0719Z" fill="#403F4D"/>
<path d="M61.9412 55H70.0588C70.5785 55 71 55.4637 71 56.0355V60.9636C71 61.5354 70.5785 62 70.0588 62H61.9412C61.4215 62 61 61.5354 61 60.9636V56.0355C61 55.4637 61.4215 55 61.9412 55ZM69.1167 57.0719H62.8828V59.9279H69.1167V57.0719Z" fill="#403F4D"/>
<path d="M21.753 55H28.247C28.6628 55 29 55.3974 29 55.8876V60.1116C29 60.6018 28.6628 61 28.247 61H21.753C21.3372 61 21 60.6018 21 60.1116V55.8876C21 55.3974 21.3372 55 21.753 55ZM27.6667 56.5H22.3333V59.5H27.6667V56.5Z" fill="#403F4D"/>
</svg>
